<?xml version="1.0" encoding="UTF-8" standalone="no"?>
<svg
   xmlns:dc="http://purl.org/dc/elements/1.1/"
   xmlns:cc="http://creativecommons.org/ns#"
   xmlns:rdf="http://www.w3.org/1999/02/22-rdf-syntax-ns#"
   xmlns:svg="http://www.w3.org/2000/svg"
   xmlns="http://www.w3.org/2000/svg"
   xmlns:sodipodi="http://sodipodi.sourceforge.net/DTD/sodipodi-0.dtd"
   xmlns:inkscape="http://www.inkscape.org/namespaces/inkscape"
   xml:space="preserve"
   width="400px"
   height="400px"
   version="1.1"
   style="shape-rendering:geometricPrecision; text-rendering:geometricPrecision; image-rendering:optimizeQuality; fill-rule:evenodd; clip-rule:evenodd"
   viewBox="0 0 308.2 308.2"
   id="svg26"
   sodipodi:docname="memory icoon.svg"
   inkscape:version="1.0.1 (3bc2e813f5, 2020-09-07)"><metadata
   id="metadata30"><rdf:RDF><cc:Work
       rdf:about=""><dc:format>image/svg+xml</dc:format><dc:type
         rdf:resource="http://purl.org/dc/dcmitype/StillImage" /></cc:Work></rdf:RDF></metadata><sodipodi:namedview
   pagecolor="#ffffff"
   bordercolor="#666666"
   borderopacity="1"
   objecttolerance="10"
   gridtolerance="10"
   guidetolerance="10"
   inkscape:pageopacity="0"
   inkscape:pageshadow="2"
   inkscape:window-width="1920"
   inkscape:window-height="1017"
   id="namedview28"
   showgrid="false"
   inkscape:zoom="0.98937244"
   inkscape:cx="227.60519"
   inkscape:cy="284.83925"
   inkscape:window-x="-8"
   inkscape:window-y="-8"
   inkscape:window-maximized="1"
   inkscape:current-layer="svg26" />
 <defs
   id="defs4">
  <style
   type="text/css"
   id="style2">
   <![CDATA[
    .str0 {stroke:#9999FF;stroke-width:7.58;stroke-miterlimit:22.9256}
    .fil0 {fill:#9999FF}
    .fil1 {fill:#CCCCFF}
   ]]>
  </style>
 
  
  
  
  
  
  
  
  
  
  
 </defs>
 <rect
   class="fil0 str0"
   x="3.79"
   y="3.79"
   width="85.889999"
   height="85.889999"
   id="rect7" /><rect
   class="fil0 str0"
   x="3.79"
   y="111.15"
   width="85.889999"
   height="85.889999"
   id="rect9" /><rect
   class="fil1 str0"
   x="3.79"
   y="218.52"
   width="85.889999"
   height="85.889999"
   id="rect11"
   style="fill:#ff9955;stroke:#ffccaa" /><rect
   class="fil1 str0"
   x="111.15"
   y="3.79"
   width="85.889999"
   height="85.889999"
   id="rect13"
   style="fill:#ff9955;stroke:#ffe6d5" /><rect
   class="fil0 str0"
   x="111.15"
   y="111.15"
   width="85.889999"
   height="85.889999"
   id="rect15" /><rect
   class="fil0 str0"
   x="111.15"
   y="218.52"
   width="85.889999"
   height="85.889999"
   id="rect17" /><rect
   class="fil0 str0"
   x="218.52"
   y="3.79"
   width="85.889999"
   height="85.889999"
   id="rect19" /><rect
   class="fil0 str0"
   x="218.52"
   y="111.15"
   width="85.889999"
   height="85.889999"
   id="rect21" /><rect
   class="fil0 str0"
   x="218.52"
   y="218.52"
   width="85.889999"
   height="85.889999"
   id="rect23" />
<path
   d="m 130.25093,82.693628 c -0.0698,-0.0698 -0.0229,-0.212506 0.14608,-0.444039 0.0977,-0.133927 0.3731,-0.507289 0.61196,-0.829718 0.23885,-0.322434 0.58865,-0.816227 0.77731,-1.097316 0.42735,-0.63671 1.23523,-1.767184 1.46563,-2.050896 0.0952,-0.117261 0.35395,-0.479708 0.57491,-0.805463 0.45138,-0.665373 0.76554,-1.110703 1.32023,-1.871437 0.42165,-0.578303 0.64309,-0.889613 1.61755,-2.274177 0.36679,-0.521141 0.84123,-1.182111 1.05425,-1.468707 0.21305,-0.286643 0.41854,-0.567383 0.45664,-0.623836 0.43173,-0.639896 0.89455,-1.302489 1.14097,-1.633361 0.16624,-0.223224 0.3982,-0.540948 0.51548,-0.706055 0.11726,-0.165102 0.28783,-0.401641 0.37903,-0.52563 0.0912,-0.124001 0.33183,-0.466404 0.53473,-0.760891 0.2029,-0.294505 0.46408,-0.671083 0.58037,-0.836894 0.17247,-0.245815 0.21148,-0.339781 0.21148,-0.509314 0,-0.167927 0.0162,-0.207894 0.0845,-0.207894 0.0972,0 0.57875,0.468875 0.57875,0.563538 0,0.06363 -0.36659,0.645357 -1.25716,1.994908 -0.26653,0.403898 -0.6543,1.01155 -0.86176,1.350302 -0.20743,0.338751 -0.60973,0.97046 -0.894,1.403817 -0.64692,0.986184 -1.12511,1.729787 -1.50272,2.336689 -0.16133,0.259277 -0.64511,1.008665 -1.07508,1.665298 -0.42996,0.656632 -0.94166,1.456787 -1.13709,1.778046 -0.19544,0.321312 -0.67512,1.069933 -1.06603,1.663635 -0.39087,0.593713 -0.84048,1.287085 -0.99906,1.540826 -0.89092,1.425258 -1.01646,1.638677 -0.98164,1.669043 0.0362,0.03158 0.53302,0.228899 1.01827,0.404462 0.22925,0.08295 0.3242,0.199143 0.21786,0.266615 -0.0725,0.046 -3.46589,0.0542 -3.51157,0.0085 z m 38.84135,-0.01785 c -0.0504,-0.08146 0.065,-0.178453 0.48339,-0.406538 0.62843,-0.342548 0.95718,-0.612001 1.0871,-0.891113 0.0615,-0.132043 0.11164,-0.314689 0.11144,-0.405892 -0.001,-0.585427 -0.70216,-2.241683 -1.8347,-4.335133 -0.16917,-0.312694 -0.46864,-0.877675 -0.66552,-1.255545 -0.19687,-0.377846 -0.40749,-0.766496 -0.46804,-0.86373 -0.0606,-0.0972 -0.1101,-0.186821 -0.1101,-0.199161 0,-0.01233 -0.18485,-0.337902 -0.41077,-0.723494 -0.22593,-0.385563 -0.5163,-0.88228 -0.64522,-1.10373 -0.40121,-0.68918 -1.96367,-3.751322 -2.24015,-4.390417 -0.37989,-0.878035 -0.57982,-1.437126 -0.7764,-2.171535 -0.19065,-0.71212 -0.31686,-1.421861 -0.37912,-2.132062 -0.0229,-0.260585 -0.0565,-0.552572 -0.0749,-0.648893 -0.0427,-0.2242 0.005,-0.417132 0.10417,-0.417132 0.0422,0 0.5456,0.314479 1.11868,0.69882 1.13451,0.760944 1.40473,0.940403 3.20669,2.129743 0.66325,0.437741 1.27419,0.854938 1.35763,0.927155 0.1081,0.09349 0.16852,0.202551 0.21001,0.379027 0.10731,0.456425 0.39261,1.200563 0.72168,1.882363 0.2348,0.486466 0.88788,1.49266 1.58363,2.439976 0.31801,0.432985 0.60988,0.835888 1.167,1.610875 0.11239,0.156344 0.4282,0.593405 0.70181,0.971274 0.46983,0.648852 0.86954,1.275002 1.22497,1.918847 0.0863,0.156344 0.34268,0.582746 0.5697,0.947567 0.48775,0.783732 1.00484,1.6468 1.41929,2.368933 0.16451,0.286637 0.41483,0.718435 0.55626,0.959499 0.14143,0.241099 0.24998,0.475621 0.24122,0.521141 -0.0147,0.07615 -0.12431,0.08382 -1.36496,0.09541 -0.74199,0.0069 -1.37886,0.0012 -1.41535,-0.01285 -0.0539,-0.0207 -0.0505,-0.04291 0.0186,-0.119209 0.0467,-0.05158 0.10976,-0.09377 0.1402,-0.09377 0.0304,0 0.18737,-0.06396 0.34876,-0.142144 0.56658,-0.274442 0.57926,-0.632773 0.055,-1.553514 -0.297,-0.521583 -1.23468,-2.00819 -2.04696,-3.245341 -0.17473,-0.266121 -0.39747,-0.621353 -0.495,-0.789443 -0.23253,-0.400746 -1.46936,-2.041545 -1.94972,-2.586488 -0.38045,-0.431618 -0.86667,-0.850036 -0.95253,-0.819815 -0.0255,0.009 0.11766,0.23365 0.31817,0.499254 0.77513,1.026762 1.25958,1.654086 1.3695,1.773301 0.0917,0.09951 0.11154,0.165439 0.0996,0.331651 l -0.0149,0.207459 -0.30776,-0.0164 c -0.41013,-0.02186 -0.47399,-0.06106 -0.47399,-0.290922 0,-0.155594 -0.053,-0.25666 -0.32841,-0.626103 -0.18062,-0.242309 -0.3885,-0.523915 -0.46194,-0.625801 -0.75644,-1.049557 -1.04794,-1.389571 -1.30628,-1.523649 -0.27366,-0.142051 -0.41863,-0.118069 -0.58214,0.09629 -0.14639,0.191921 -0.15552,0.512494 -0.0248,0.870151 0.0851,0.232864 0.63894,1.29279 1.12354,2.150205 0.11359,0.200969 0.40128,0.755326 0.6393,1.231842 0.23804,0.476551 0.56525,1.100951 0.72713,1.387593 0.50916,0.901692 1.27757,2.33962 1.67363,3.132052 0.20979,0.419691 0.5739,1.106353 0.80915,1.525916 0.52741,0.940641 0.66826,1.216828 0.66826,1.310224 0,0.06425 -0.25967,0.07264 -2.24769,0.07264 -1.51026,0 -2.2577,-0.01622 -2.27827,-0.04943 z m -32.83854,-0.116173 c -0.0681,-0.177383 0.10994,-0.985423 0.41754,-1.895343 0.4548,-1.345404 1.3787,-3.065335 2.35417,-4.382531 0.87096,-1.176105 2.11367,-2.47011 3.41768,-3.558733 1.39558,-1.165079 3.67724,-2.48855 5.02213,-2.912957 0.43221,-0.136404 0.50365,-0.157216 0.80546,-0.234574 0.86697,-0.222264 1.46527,-0.272419 3.26915,-0.274036 1.70871,-0.0017 2.34396,0.04373 3.41126,0.243059 1.36046,0.254078 2.63546,0.767258 3.87124,1.558161 1.11814,0.715609 1.44006,0.979311 2.4412,1.999758 0.9686,0.987295 1.39518,1.502621 1.92582,2.32653 0.15945,0.247553 0.35538,0.546053 0.4354,0.663302 0.55708,0.81632 1.37739,2.331473 1.693,3.126981 0.0775,0.195439 0.29954,0.728443 0.49334,1.18449 0.19381,0.456018 0.37551,0.893097 0.40379,0.97128 0.0283,0.07817 0.13117,0.349202 0.22864,0.602303 0.14574,0.378369 0.16664,0.472905 0.11764,0.531945 -0.0495,0.05966 -0.19921,0.0706 -0.88475,0.06469 -0.52665,-0.0047 -0.83887,-0.02559 -0.86303,-0.05817 -0.0342,-0.04611 -0.0827,-0.201086 -0.19388,-0.619579 -0.13023,-0.490199 -0.45129,-1.495358 -0.67345,-2.108366 -0.62494,-1.724635 -1.18252,-2.780763 -2.36074,-4.471833 -0.5002,-0.717935 -1.48544,-1.853096 -1.71488,-1.975951 -0.0636,-0.03402 -0.24079,-0.02617 -0.5979,0.02663 -1.0623,0.156978 -1.81454,0.430769 -2.63956,0.960662 -0.9783,0.628377 -1.69244,1.527736 -2.24789,2.830994 -0.31577,0.740869 -0.45968,1.922783 -0.358,2.940101 l 0.0334,0.334251 -0.54312,0.05664 c -0.70833,0.07383 -0.86398,0.07142 -0.93534,-0.01454 -0.0777,-0.09356 -0.0445,-0.395303 0.1351,-1.231784 0.37517,-1.746721 0.76893,-2.731131 1.61082,-4.027207 0.31093,-0.478645 1.13148,-1.275304 1.60082,-1.554119 0.39482,-0.234592 1.11702,-0.562836 1.36748,-0.62151 0.45516,-0.106642 0.68236,-0.133758 1.29108,-0.154064 0.47561,-0.01588 0.67427,-0.03896 0.67219,-0.07825 -0.006,-0.118244 -0.79009,-0.731118 -1.57954,-1.235128 -0.65324,-0.417051 -2.3245,-1.161596 -3.06057,-1.363542 -1.87206,-0.513558 -3.68649,-0.573802 -5.47217,-0.181715 -0.13029,0.02861 -0.30085,0.06353 -0.37903,0.0776 -0.44565,0.08023 -1.47872,0.42917 -2.31728,0.782715 -2.1449,0.90432 -3.87206,2.235414 -5.51815,4.25271 -0.91053,1.115913 -2.11463,3.547963 -2.42993,4.907917 -0.0242,0.10423 -0.0656,0.274792 -0.0921,0.379027 -0.11538,0.453849 -0.22067,1.085436 -0.27437,1.645887 -0.0218,0.227724 -0.0664,0.446255 -0.0991,0.485629 -0.0879,0.105886 -1.74303,0.106549 -1.78361,5.81e-4 z m 10.32929,-2.082134 c -0.017,-0.04449 -0.005,-0.16987 0.0267,-0.278682 0.0797,-0.273338 0.21871,-0.827747 0.26338,-1.050668 0.0156,-0.07818 0.0497,-0.238081 0.0755,-0.355342 0.29099,-1.319772 0.41729,-2.752653 0.30696,-3.482311 -0.0537,-0.355452 -0.25946,-0.853775 -0.43902,-1.063554 -0.30762,-0.359371 -0.93039,-0.52948 -1.40908,-0.384911 -0.68827,0.207871 -0.93181,0.300691 -1.4491,0.552321 -0.51948,0.252683 -1.74606,0.959598 -2.22526,1.282434 -0.20797,0.140126 -0.33249,0.144551 -0.33249,0.0118 0,-0.18207 1.15129,-1.274141 1.82409,-1.730293 0.48679,-0.330034 1.21446,-0.713381 1.63457,-0.861154 0.67457,-0.237267 0.72324,-0.246676 1.27763,-0.246676 0.51781,0 0.54878,0.0059 0.88779,0.168952 0.79545,0.382602 1.31143,1.215065 1.48099,2.389495 0.0674,0.466724 0.0394,2.460958 -0.0425,3.032231 -0.028,0.195438 -0.0637,0.495118 -0.0792,0.665977 l -0.0283,0.310629 0.29449,0.156961 c 0.26285,0.140097 1.11389,0.466857 1.49186,0.572791 0.36967,0.103613 0.42641,0.129089 0.42641,0.191397 0,0.116249 -0.32549,0.141958 -2.16668,0.171109 -1.65686,0.02623 -1.78987,0.02239 -1.81863,-0.05251 z m -5.23009,-7.813042 c 0,-0.116226 0.23202,-0.547821 0.48529,-0.902645 0.0744,-0.104282 0.20825,-0.296209 0.29737,-0.426501 0.22818,-0.333564 0.97547,-1.300925 1.39675,-1.808064 0.59285,-0.713684 1.28612,-1.609409 1.60107,-2.068637 0.32626,-0.475737 0.81026,-1.406196 0.91371,-1.756676 0.0745,-0.252485 0.22524,-0.423454 0.32105,-0.364239 0.0494,0.03053 0.0528,0.09799 0.016,0.317625 -0.10697,0.637885 -0.34699,1.240036 -0.87596,2.197662 -0.6681,1.209501 -1.21784,2.469447 -1.21784,2.791015 0,0.205412 -0.11881,0.315916 -0.50856,0.473028 -0.39719,0.160106 -0.76225,0.385684 -1.13143,0.699082 -1.19227,1.012253 -1.29749,1.081034 -1.29749,0.848309 z m 19.76356,-1.116873 c -0.55606,-0.432851 -1.01316,-0.711666 -1.35667,-0.827549 -0.13029,-0.04396 -0.27736,-0.115667 -0.32684,-0.159385 -0.10451,-0.09235 -0.64389,-1.178024 -0.64419,-1.296686 -1.4e-4,-0.04408 -0.019,-0.09172 -0.0419,-0.105899 -0.023,-0.01419 -0.0559,-0.08473 -0.0732,-0.156774 -0.0319,-0.132578 -0.087,-0.354318 -0.17411,-0.699536 -0.0613,-0.243047 -0.12924,-0.55338 -0.18668,-0.852816 -0.025,-0.130292 -0.0678,-0.343496 -0.095,-0.473789 -0.0804,-0.384074 -0.13397,-0.648032 -0.18286,-0.900162 -0.0464,-0.239348 -0.10932,-0.506132 -0.20114,-0.852815 -0.0276,-0.104236 -0.0533,-0.274792 -0.0571,-0.379027 -0.006,-0.156472 0.009,-0.189513 0.0824,-0.189513 0.0684,0 0.12201,0.08879 0.229,0.379026 0.0768,0.208465 0.18311,0.496288 0.23615,0.639595 0.27949,0.755331 0.56909,1.385273 0.9039,1.966199 0.53236,0.923672 0.74634,1.287178 1.11556,1.895144 0.22157,0.364815 0.48943,0.812541 0.59528,0.994977 0.10583,0.182401 0.32636,0.534179 0.49007,0.781761 0.28339,0.428536 0.334,0.564144 0.22418,0.600686 -0.027,0.009 -0.26853,-0.154553 -0.53685,-0.363408 z m -15.30972,-1.673485 c 0,-0.08871 0.17452,-0.240436 0.90016,-0.782622 0.80643,-0.6025 0.97966,-0.749767 0.93474,-0.794694 -0.0415,-0.04152 -0.33906,-0.08853 -1.00034,-0.158036 -0.48135,-0.05059 -0.5977,-0.09686 -0.5977,-0.237738 0,-0.07144 0.10327,-0.08828 0.86465,-0.14101 1.45996,-0.101095 1.94097,-0.137142 2.28852,-0.171498 0.28098,-0.02774 0.34704,-0.02018 0.415,0.0478 0.0444,0.04449 0.069,0.100031 0.0544,0.123495 -0.0327,0.05292 -1.20016,0.74669 -1.86963,1.111057 -0.55955,0.304524 -1.1242,0.634698 -1.52566,0.892184 -0.27615,0.177098 -0.46423,0.222095 -0.46423,0.11105 z m 10.6603,-1.073306 c -0.22149,-0.07429 -0.91442,-0.299755 -1.53981,-0.501033 -1.92673,-0.62009 -2.08092,-0.673711 -2.09987,-0.730617 -0.0315,-0.09455 0.13854,-0.177244 0.48614,-0.236377 0.18398,-0.03128 0.41978,-0.07486 0.52402,-0.09682 0.10423,-0.02192 0.30678,-0.06224 0.4501,-0.08954 0.14331,-0.02727 0.32454,-0.06233 0.40271,-0.07784 0.36317,-0.07207 0.6351,-0.124303 0.85282,-0.163834 0.25453,-0.04623 0.58204,-0.115975 0.92387,-0.196793 0.32998,-0.07801 0.687,-0.07754 0.687,0.0012 0,0.06061 -0.13295,0.111289 -0.6633,0.252839 -0.10423,0.02785 -0.37073,0.108492 -0.59225,0.179256 -0.36289,0.115952 -0.56363,0.175185 -0.88834,0.262126 -0.15511,0.04152 -0.13102,0.110358 0.0711,0.202934 0.0977,0.04478 0.23097,0.115523 0.29611,0.15724 0.2462,0.157658 1.27036,0.751691 1.29598,0.751691 0.0698,0 0.45704,0.266401 0.45704,0.314387 0,0.05641 -0.10838,0.11408 -0.20523,0.109265 -0.0305,-0.0017 -0.23657,-0.06354 -0.45807,-0.137829 z m 12.46045,-3.472112 c -0.0912,-0.05437 -0.32573,-0.208197 -0.52114,-0.341862 -0.19544,-0.133671 -0.60053,-0.38929 -0.90017,-0.56804 -0.63824,-0.380695 -0.75841,-0.456204 -1.82409,-1.146035 -0.81607,-0.528212 -1.11728,-0.718534 -1.80038,-1.137388 -0.54464,-0.333971 -0.92721,-0.573093 -1.38164,-0.863428 -0.43679,-0.279123 -0.34655,-0.266371 -1.0347,-0.14622 -0.64409,0.112452 -1.31397,0.224392 -1.70563,0.285003 -0.15635,0.02419 -0.40153,0.06554 -0.54484,0.09185 -0.14331,0.02634 -0.39916,0.0697 -0.56854,0.0964 -0.16938,0.02669 -0.55313,0.09013 -0.85282,0.140969 -0.49288,0.08361 -1.40458,0.22712 -2.15571,0.339321 -0.15635,0.02338 -0.41752,0.06315 -0.58037,0.08843 -0.16286,0.0253 -0.42937,0.06666 -0.59225,0.09195 -0.61256,0.09509 -1.13384,0.181803 -1.71745,0.285677 -0.3694,0.06575 -0.76184,0.13159 -1.10155,0.184821 -0.14984,0.02349 -0.41101,0.0681 -0.58038,0.09915 -0.29497,0.05408 -0.51825,0.09297 -1.08968,0.189816 -0.14332,0.02431 -0.37784,0.06564 -0.52113,0.09188 -0.14332,0.02623 -0.34587,0.05941 -0.4501,0.07371 -0.10423,0.0143 -0.29612,0.04588 -0.42641,0.07016 -0.13029,0.02431 -0.37547,0.06744 -0.54484,0.09589 -0.16938,0.02844 -0.41456,0.07109 -0.54484,0.09476 -0.26438,0.04803 -0.71955,0.125495 -1.11338,0.189513 -0.27227,0.04425 -0.66371,0.109864 -1.12526,0.188623 -0.14984,0.02559 -0.63485,0.10113 -1.07786,0.167917 -0.44299,0.06679 -0.88253,0.141806 -0.97678,0.166712 -0.0942,0.02489 -0.21149,0.04466 -0.26058,0.0439 -0.0491,-5.82e-4 -0.35105,0.04681 -0.67104,0.105654 l -0.58173,0.107038 0.0294,0.133625 c 0.0162,0.07349 0.0807,0.260044 0.14351,0.414568 0.15004,0.36924 0.14805,0.435264 -0.0126,0.41626 -0.12477,-0.01477 -0.24793,-0.146929 -0.7721,-0.828601 -0.18003,-0.234115 -0.18985,-0.264871 -0.21958,-0.687866 -0.0356,-0.506684 -0.0245,-0.527305 0.31297,-0.579559 0.11726,-0.01814 0.54368,-0.08539 0.94757,-0.149413 0.4039,-0.06404 0.86226,-0.136328 1.01863,-0.160647 0.15635,-0.02431 0.49747,-0.07833 0.75805,-0.120029 0.26058,-0.04169 0.62303,-0.09695 0.80547,-0.122803 0.50318,-0.07129 1.0919,-0.163636 1.80038,-0.282403 0.15636,-0.02623 0.4122,-0.06771 0.56855,-0.09222 0.33805,-0.05298 0.75477,-0.121913 1.11338,-0.184134 0.14332,-0.02489 0.40982,-0.0698 0.59224,-0.09986 0.58942,-0.09711 0.89481,-0.148366 1.16079,-0.194851 0.3871,-0.06765 0.77171,-0.131793 1.07786,-0.179768 0.25697,-0.0403 0.50593,-0.08279 1.17261,-0.200271 0.36541,-0.06439 0.73244,-0.126728 1.08968,-0.185082 0.15635,-0.02553 0.40154,-0.0659 0.54485,-0.08969 0.14332,-0.02378 0.39916,-0.06534 0.56854,-0.09234 0.16938,-0.02698 0.44654,-0.07204 0.61595,-0.100107 0.16937,-0.02809 0.52113,-0.08213 0.78175,-0.120122 0.26058,-0.03797 0.56971,-0.09067 0.68701,-0.117052 0.18409,-0.0414 2.32268,-0.374316 2.86642,-0.446196 0.10423,-0.01378 0.31743,-0.04559 0.47378,-0.07063 0.15635,-0.02506 0.43351,-0.06903 0.61594,-0.09768 0.18242,-0.02867 0.45958,-0.07336 0.61596,-0.09934 0.15634,-0.02599 0.41219,-0.0662 0.56853,-0.08937 0.15636,-0.02314 0.34052,-0.05652 0.40926,-0.07417 0.0687,-0.01762 0.16719,-0.0095 0.21878,0.01814 0.12955,0.06933 1.97247,1.457793 2.52267,1.900599 0.60639,0.488007 1.00942,0.796265 1.3503,1.032781 0.34809,0.241523 0.71454,0.523659 1.29689,0.998507 0.45424,0.370385 0.71686,0.568801 1.20965,0.913967 0.54348,0.380672 0.78636,0.662994 0.56122,0.652335 -0.0456,-0.0023 -0.15754,-0.04838 -0.24874,-0.102764 z m -25.0159,-2.73751 c 0,-0.05292 0.16338,-0.378073 0.36306,-0.722535 0.45633,-0.787163 1.0583,-1.868959 1.0583,-1.901913 0,-0.01372 0.22662,-0.489182 0.5036,-1.056582 0.89052,-1.824235 1.34541,-2.814008 1.66095,-3.613761 0.38576,-0.977688 0.91549,-2.339462 1.15195,-2.96117 0.0991,-0.260579 0.23669,-0.620701 0.30575,-0.800206 0.0691,-0.179547 0.20003,-0.552677 0.29103,-0.829114 0.18881,-0.573645 0.30397,-0.818599 0.37357,-0.794595 0.0266,0.0092 0.0448,0.07859 0.0405,0.154286 -0.007,0.125669 -0.0322,0.241738 -0.15763,0.729856 -0.0234,0.0912 -0.0732,0.293748 -0.11058,0.450092 -0.12877,0.53868 -0.7766,2.972952 -0.93302,3.50602 -0.0535,0.182407 -0.12073,0.416929 -0.14933,0.521135 -0.0286,0.104235 -0.0888,0.30678 -0.13385,0.450098 -0.045,0.143319 -0.13057,0.420483 -0.19012,0.615945 -0.0596,0.195439 -0.16582,0.536551 -0.23614,0.758059 -0.27379,0.862468 -0.41647,1.316847 -0.52073,1.658226 -0.2081,0.681492 -0.5739,1.780472 -0.76478,2.297874 -0.3668,0.994064 -0.43629,1.162253 -0.50313,1.217741 -0.0369,0.0307 -0.17739,0.07372 -0.31209,0.09567 -0.2502,0.04076 -0.48818,0.08759 -0.9082,0.178633 -0.78429,0.170016 -0.82911,0.172516 -0.82911,0.04629 z m 4.06066,-1.165289 c -0.0698,-0.06983 -0.0265,-0.222223 0.19731,-0.692912 0.54196,-1.140121 1.2557,-2.875817 1.5423,-3.750514 0.34908,-1.065479 0.99503,-3.119457 1.11879,-3.557512 0.0221,-0.07818 0.0859,-0.302041 0.14191,-0.49748 0.0559,-0.195439 0.11995,-0.419302 0.14218,-0.49748 0.0222,-0.07817 0.0617,-0.216756 0.0878,-0.30796 0.15874,-0.555607 0.22392,-0.808138 0.28111,-1.089181 0.0207,-0.101636 0.0653,-0.171411 0.11583,-0.181145 0.0699,-0.01343 0.0822,0.02285 0.0822,0.2425 0,0.14208 -0.0429,0.500759 -0.0953,0.797072 -0.0524,0.296301 -0.13805,0.80526 -0.19029,1.130968 -0.0918,0.572791 -0.21201,1.263331 -0.36022,2.070208 -0.0393,0.213552 -0.0909,0.51204 -0.11475,0.663302 -0.0239,0.151256 -0.0667,0.381614 -0.0952,0.511889 -0.0285,0.130287 -0.0708,0.354156 -0.0939,0.497474 -0.0408,0.252753 -0.0923,0.528218 -0.19042,1.018633 -0.0261,0.130287 -0.0687,0.343496 -0.0948,0.473783 -0.0783,0.39164 -0.13195,0.650515 -0.18648,0.900168 -0.0284,0.130292 -0.0707,0.332831 -0.094,0.450092 -0.0232,0.117261 -0.0661,0.309147 -0.0952,0.426408 -0.10056,0.405026 -0.14949,0.640356 -0.17416,0.837703 -0.0136,0.108957 -0.06,0.228526 -0.10316,0.265719 -0.11517,0.09933 -0.37338,0.175761 -0.59477,0.176063 -0.10687,0 -0.26891,0.01954 -0.36012,0.04309 -0.23843,0.06161 -0.82724,0.108538 -0.86671,0.06908 z m 16.26741,-1.542948 -1.15644,-1.139662 -0.47723,0.02791 c -0.26248,0.01535 -0.71217,0.0421 -0.99933,0.0594 -0.58142,0.03506 -0.57526,0.03768 -0.67932,-0.288875 -0.0332,-0.10423 -0.0788,-0.232156 -0.10126,-0.28427 -0.1004,-0.232754 -0.64001,-1.83839 -0.75629,-2.250469 -0.0331,-0.117261 -0.0773,-0.255846 -0.0982,-0.307967 -0.0209,-0.0521 -0.0519,-0.148057 -0.0689,-0.213203 -0.017,-0.06515 -0.0488,-0.182408 -0.0708,-0.26058 -0.17532,-0.622975 -0.49992,-1.917887 -0.61762,-2.46369 -0.0787,-0.364815 -0.16309,-0.737945 -0.18765,-0.829108 -0.0245,-0.09121 -0.0553,-0.229788 -0.0682,-0.307966 -0.0129,-0.07818 -0.0468,-0.24874 -0.0752,-0.379027 -0.0585,-0.268255 -0.11754,-0.55424 -0.18577,-0.900167 -0.0257,-0.130293 -0.07,-0.343497 -0.0985,-0.473789 -0.0284,-0.130287 -0.0711,-0.332832 -0.0948,-0.450093 -0.0237,-0.117261 -0.0625,-0.309147 -0.0862,-0.426408 -0.0238,-0.117261 -0.0589,-0.250339 -0.0782,-0.29572 -0.0413,-0.09756 0.0946,-0.170457 0.19148,-0.102694 0.28598,0.199975 0.9834,0.768468 1.64726,1.342771 0.43882,0.379614 1.03581,0.884601 1.3266,1.122228 0.78318,0.639902 0.73517,0.562783 0.76397,1.227952 0.0229,0.52973 0.0754,0.955405 0.16634,1.348585 0.0211,0.0912 0.0744,0.325726 0.11854,0.521142 0.13341,0.591079 0.39727,1.383755 0.7807,2.345225 0.0831,0.208465 0.58613,1.23432 1.11773,2.279678 1.09241,2.148037 1.08145,2.124032 1.00115,2.190638 -0.0421,0.03489 -0.36919,-0.259341 -1.21401,-1.091856 z m -8.36036,-0.05303 c -0.0109,-0.05705 -0.0424,-0.22095 -0.0702,-0.364274 -0.0277,-0.143318 -0.0625,-0.345869 -0.0773,-0.450092 -0.32994,-2.330624 -0.47407,-4.166688 -0.61368,-7.817595 -0.014,-0.364821 -0.0495,-0.899005 -0.0791,-1.187066 -0.0556,-0.542064 -0.0244,-0.731781 0.12057,-0.731781 0.0693,0 0.21827,0.539587 0.21807,0.789995 -5e-5,0.0827 0.02,0.253264 0.0446,0.379033 0.0246,0.125762 0.0671,0.399222 0.0945,0.60771 0.14847,1.130718 0.29735,2.178757 0.36007,2.534739 0.039,0.221496 0.1262,0.733194 0.1937,1.137085 0.1556,0.931 0.18899,1.111517 0.25417,1.374004 0.0291,0.117261 0.0715,0.298482 0.0942,0.402723 0.0227,0.104235 0.0629,0.264138 0.0895,0.355336 0.0266,0.0912 0.0684,0.240447 0.093,0.331651 0.16305,0.604273 0.58527,1.716244 0.8844,2.329106 0.15928,0.326354 0.10232,0.348963 -0.98285,0.390128 -0.59214,0.02245 -0.60427,0.02088 -0.62363,-0.08078 z m 6.12409,-10.068017 c -0.22514,-0.200626 -0.5556,-0.496782 -0.73436,-0.658145 -0.17876,-0.161345 -0.64485,-0.558538 -1.0357,-0.882629 -0.39087,-0.324103 -0.98563,-0.83897 -1.32165,-1.144163 -0.70965,-0.644554 -0.55515,-0.608768 -1.54477,-0.357732 -0.0912,0.02314 -0.25111,0.06622 -0.35534,0.09574 -0.19568,0.05542 -0.38329,0.104055 -0.71065,0.184198 -0.10423,0.02553 -0.2748,0.07055 -0.37903,0.100078 -0.10423,0.02954 -0.26414,0.07216 -0.35534,0.09476 -0.0912,0.02262 -0.25111,0.06523 -0.35533,0.09476 -0.10424,0.02954 -0.26414,0.07147 -0.35534,0.09323 -0.0912,0.02175 -0.41101,0.106765 -0.71065,0.188915 -0.29968,0.08216 -0.63015,0.168549 -0.73436,0.191996 -0.17956,0.04042 -0.77079,0.191165 -1.77668,0.453081 -0.45527,0.118547 -0.90922,0.228864 -1.25555,0.3051 -0.10423,0.02297 -0.28545,0.06594 -0.40272,0.09555 -0.11726,0.0296 -0.29329,0.065 -0.39117,0.07866 -0.0979,0.01366 -0.18975,0.0439 -0.20415,0.06721 -0.0144,0.02332 -0.0863,0.04239 -0.15975,0.04239 -0.1247,0 -0.47677,0.120023 -0.47677,0.162531 0,0.01053 0.0431,0.119779 0.0959,0.242797 0.10007,0.233434 0.0882,0.400106 -0.0284,0.400106 -0.0376,0 -0.2248,-0.11572 -0.41605,-0.257154 l -0.34772,-0.257149 -0.029,-0.345299 c -0.0314,-0.37484 0.0274,-0.514367 0.21711,-0.514367 0.0512,0 0.23442,-0.04582 0.40722,-0.101868 0.45672,-0.148093 0.80602,-0.256206 1.04854,-0.324539 0.11727,-0.03303 0.33048,-0.097 0.47379,-0.142132 0.14332,-0.04512 0.35653,-0.108847 0.47379,-0.14158 0.11726,-0.03274 0.34112,-0.09884 0.49748,-0.146912 0.41299,-0.126972 1.60066,-0.464107 2.01359,-0.571575 0.51892,-0.135073 0.71981,-0.188903 0.85282,-0.228515 0.0651,-0.01942 0.19307,-0.0567 0.28428,-0.08286 0.50459,-0.14479 0.59623,-0.175098 0.63722,-0.210762 0.0248,-0.02152 0.0873,-0.03913 0.13898,-0.03913 0.0517,0 0.21265,-0.03966 0.35771,-0.08818 0.14505,-0.0485 0.42364,-0.136742 0.61907,-0.19609 0.19544,-0.05935 0.47261,-0.144738 0.61595,-0.189746 0.14332,-0.04501 0.35653,-0.108864 0.47379,-0.141906 0.11726,-0.03303 0.33046,-0.097 0.47379,-0.142137 0.14332,-0.04512 0.355,-0.110906 0.4704,-0.146168 l 0.20983,-0.0641 0.26396,0.304687 c 0.14517,0.167579 0.49924,0.550705 0.78681,0.85135 0.61003,0.637827 1.36784,1.469673 1.70421,1.870838 0.13,0.155012 0.52958,0.584205 0.88794,0.953782 0.42081,0.433945 0.65157,0.707474 0.65157,0.772312 0,0.178831 -0.1525,0.107451 -0.57516,-0.269191 z m -12.19714,-2.840694 c 0.0166,-0.09772 0.0491,-0.305593 0.0723,-0.461937 0.0232,-0.156356 0.0985,-0.60407 0.16724,-0.994977 0.0688,-0.390878 0.14265,-0.817286 0.16419,-0.947573 0.0745,-0.450871 0.29565,-1.848949 0.33722,-2.132062 0.023,-0.15635 0.0647,-0.433514 0.0927,-0.615944 0.028,-0.182413 0.0699,-0.459577 0.093,-0.61595 0.0231,-0.15635 0.0658,-0.444173 0.0949,-0.639595 0.0291,-0.195439 0.0739,-0.515227 0.0995,-0.710654 0.0256,-0.195439 0.0669,-0.504586 0.0917,-0.687005 0.0796,-0.586334 0.13871,-1.033635 0.18459,-1.397653 0.0246,-0.195439 0.0684,-0.536557 0.0972,-0.758059 0.11638,-0.894254 0.23167,-1.911014 0.37872,-3.340202 0.0241,-0.234522 0.0669,-0.650265 0.0951,-0.92387 0.0832,-0.807737 0.20783,-2.214189 0.28539,-3.221744 0.0231,-0.299674 0.0547,-0.70474 0.0703,-0.900168 0.0487,-0.609885 0.23627,-3.503239 0.35778,-5.519669 0.0251,-0.416935 0.0662,-0.917956 0.0912,-1.113383 0.0741,-0.577745 0.0638,-0.850798 -0.0332,-0.885212 -0.2573,-0.09125 -0.33856,-0.381492 -0.14214,-0.507749 0.17354,-0.111521 2.81629,-1.165533 2.92242,-1.165533 0.10882,0 0.14586,0.0471 0.83366,1.059966 0.25986,0.382679 0.50037,0.73577 0.53448,0.78464 0.0413,0.05923 0.0456,0.09901 0.0128,0.119273 -0.027,0.01675 -0.28491,-0.189124 -0.57304,-0.457431 -0.28811,-0.268302 -0.60887,-0.550851 -0.71278,-0.627871 l -0.18892,-0.140051 -0.29501,0.08401 c -0.16224,0.04617 -0.41808,0.119209 -0.56854,0.162246 -0.21224,0.06072 -0.26655,0.09451 -0.2424,0.150809 0.0171,0.03989 0.0265,0.752197 0.0208,1.582875 l -0.0103,1.510303 -0.18056,0.187908 c -0.1129,0.117499 -0.21347,0.1815 -0.26839,0.170806 -0.0838,-0.01634 -0.0873,-0.09409 -0.0769,-1.69128 l 0.0109,-1.674142 -0.12936,0.03059 c -0.37155,0.08786 -0.62681,0.176412 -0.62681,0.217432 0,0.02535 0.024,0.04605 0.0533,0.04605 0.0391,0 0.0444,0.400618 0.0199,1.50308 -0.0184,0.826683 -0.0431,1.518741 -0.0549,1.537896 -0.0119,0.01913 -0.0441,0.499387 -0.0717,1.067188 -0.11115,2.285145 -0.27635,4.975036 -0.46786,7.617976 -0.0283,0.390871 -0.0726,1.019842 -0.0984,1.397653 -0.0258,0.377846 -0.0672,0.942821 -0.092,1.25555 -0.0248,0.312694 -0.0669,0.856351 -0.0936,1.20814 -0.055,0.724552 -0.1173,1.503127 -0.18963,2.368928 -0.0272,0.325725 -0.0682,0.8374 -0.091,1.137085 -0.11487,1.505657 -0.27918,3.334795 -0.38306,4.264073 -0.0277,0.247553 -0.07,0.684626 -0.0941,0.971274 -0.0795,0.945654 -0.1503,1.468004 -0.20598,1.519654 -0.0302,0.02803 -0.21483,0.09963 -0.41026,0.159147 -0.19543,0.05952 -0.40431,0.12721 -0.46416,0.150424 -0.0599,0.0232 -0.18479,0.04222 -0.27761,0.04222 h -0.16878 l 0.0301,-0.177668 z m 2.42315,-0.528317 c -0.0243,-0.03931 0.0437,-1.108987 0.16283,-2.563139 0.0267,-0.325732 0.10127,-1.274496 0.16574,-2.10836 0.0645,-0.833865 0.1393,-1.7826 0.16631,-2.10836 0.027,-0.325732 0.0701,-0.848065 0.0958,-1.160788 0.0256,-0.3127 0.0687,-0.835028 0.0956,-1.160788 0.0269,-0.325732 0.0699,-0.85873 0.0956,-1.18449 0.0907,-1.15235 0.13797,-1.736102 0.18801,-2.321576 0.0279,-0.325731 0.0707,-0.837405 0.0952,-1.137085 0.0467,-0.570366 0.10676,-1.293453 0.1869,-2.250475 0.0262,-0.3127 0.0699,-0.845686 0.0972,-1.18449 0.0273,-0.338751 0.0704,-0.861102 0.0959,-1.160788 0.0255,-0.299668 0.062,-0.815012 0.081,-1.145168 0.019,-0.330175 0.0516,-0.617265 0.0724,-0.637932 0.0208,-0.0207 0.0741,-0.01483 0.11845,0.01303 0.0628,0.03943 0.0881,0.15446 0.1145,0.519472 0.0186,0.25787 0.0571,0.703374 0.0856,0.990023 0.0591,0.595679 0.11734,1.193032 0.18942,1.942549 0.0276,0.286642 0.0703,0.713027 0.0949,0.947572 0.0247,0.234522 0.0658,0.650259 0.0916,0.92387 0.0258,0.273611 0.0686,0.700042 0.0954,0.947572 0.0268,0.247548 0.0693,0.673962 0.0947,0.947567 0.0254,0.273617 0.068,0.710654 0.0947,0.971274 0.0267,0.26058 0.0695,0.687005 0.0951,0.947573 0.0256,0.260579 0.0679,0.687004 0.094,0.947572 0.026,0.260579 0.0687,0.697664 0.0948,0.971274 0.0261,0.273611 0.07,0.710655 0.0974,0.971275 0.064,0.607053 0.12732,1.243972 0.18606,1.871442 0.0878,0.938472 0.14134,1.493067 0.19193,1.989902 0.0641,0.628935 0.12461,1.277019 0.21472,2.297873 0.0391,0.442987 0.081,0.83255 0.0931,0.865748 0.0337,0.09223 -0.14972,0.247664 -0.29225,0.247664 -0.0698,0 -0.19696,0.0253 -0.28256,0.05629 -0.20934,0.0757 -0.34857,-0.04076 -0.34857,-0.291504 0,-0.09523 -0.0417,-0.598307 -0.0928,-1.117878 -0.0511,-0.519624 -0.11568,-1.211228 -0.14358,-1.536988 -0.0787,-0.918916 -0.1403,-1.591313 -0.19308,-2.10836 -0.0266,-0.26058 -0.0708,-0.77226 -0.0982,-1.137086 -0.0527,-0.702013 -0.108,-1.353941 -0.18092,-2.132062 -0.1125,-1.20036 -0.14818,-1.597936 -0.18495,-2.060956 -0.0391,-0.492624 -0.0772,-0.663302 -0.14823,-0.663302 -0.0202,0 -0.0506,0.207877 -0.0676,0.461944 -0.017,0.254066 -0.0518,0.707113 -0.0774,1.006798 -0.0948,1.110604 -0.14362,1.718617 -0.25853,3.221744 -0.0647,0.846901 -0.12967,1.657063 -0.14429,1.800388 -0.0406,0.398292 -0.11294,1.234924 -0.16587,1.918846 -0.0262,0.338752 -0.0684,0.850438 -0.0939,1.137086 -0.0254,0.286642 -0.0677,0.787669 -0.0941,1.113383 -0.0856,1.05946 -0.0707,1.01494 -0.37818,1.124147 -0.19627,0.06971 -0.36309,0.07707 -0.39982,0.01762 z m 7.18184,-1.153612 c -0.13128,-0.162857 -0.32317,-0.391813 -0.42642,-0.508755 l -0.18772,-0.212663 -0.34781,0.125431 c -0.1913,0.06899 -0.46987,0.17001 -0.61908,0.224503 -0.14919,0.05449 -0.32467,0.09908 -0.38997,0.09908 -0.13282,0 -0.13274,2.62e-4 -0.2106,-0.592248 -0.0274,-0.208465 -0.0808,-0.581583 -0.11867,-0.829113 -0.15901,-1.039294 -0.29141,-2.129888 -0.4127,-3.399429 -0.023,-0.241041 -0.0636,-0.646119 -0.0901,-0.900168 -0.12592,-1.206477 -0.24444,-2.579114 -0.37738,-4.370657 -0.028,-0.377846 -0.0716,-0.964151 -0.0969,-1.302896 -0.0252,-0.338758 -0.0664,-0.957074 -0.0915,-1.374009 -0.0251,-0.41693 -0.0688,-1.120507 -0.097,-1.563517 -0.0283,-0.442987 -0.0711,-1.167865 -0.0952,-1.610875 -0.11302,-2.080308 -0.14161,-2.623785 -0.18448,-3.506013 -0.0253,-0.521141 -0.0585,-1.086146 -0.0738,-1.255545 -0.0152,-0.169381 -0.0493,-0.958237 -0.0757,-1.753036 -0.0263,-0.794792 -0.0602,-1.514088 -0.0752,-1.598488 -0.0208,-0.117436 -0.008,-0.160706 0.0536,-0.184425 0.0601,-0.02303 0.23139,0.11929 0.6686,0.555456 l 0.58775,0.586735 0.003,0.474498 c 0.002,0.260975 0.0235,0.591737 0.048,0.735061 0.0245,0.143318 0.0656,0.569709 0.0914,0.947572 0.0846,1.239222 0.2413,2.938689 0.3757,4.074559 0.0262,0.221497 0.0687,0.594621 0.0943,0.829114 0.0257,0.234522 0.0704,0.607605 0.0993,0.829113 0.029,0.221496 0.0707,0.551967 0.0928,0.734357 0.022,0.182407 0.0638,0.502213 0.0927,0.710649 0.029,0.20847 0.0731,0.549594 0.0981,0.758059 0.025,0.208464 0.0773,0.592248 0.1163,0.852815 0.039,0.26058 0.10565,0.718994 0.14822,1.018627 0.0426,0.299668 0.10471,0.736729 0.1381,0.971274 0.0334,0.234522 0.10388,0.746232 0.15663,1.137086 0.13954,1.03399 0.13459,1.00003 0.29326,2.013603 0.0224,0.143319 0.0649,0.431142 0.0943,0.6396 0.0772,0.546961 0.15465,1.024739 0.28427,1.75303 0.0279,0.15635 0.0717,0.41219 0.0975,0.568546 0.14271,0.864894 0.29191,1.743732 0.37806,2.226767 0.0233,0.130292 0.0659,0.375473 0.0948,0.544843 0.0289,0.169376 0.0713,0.414557 0.0943,0.544838 0.023,0.130292 0.054,0.311519 0.0689,0.402723 0.0149,0.0912 0.0507,0.27553 0.0796,0.409608 0.0585,0.271674 0.0248,0.490583 -0.0753,0.490583 -0.0362,0 -0.17325,-0.133252 -0.30452,-0.296115 z M 156.8544,20.033829 c -0.0517,-0.08469 -0.21619,-0.43095 -0.36546,-0.76948 -0.44361,-1.005991 -0.72399,-1.587673 -0.76513,-1.58712 -0.0212,3.31e-4 -0.14522,0.03367 -0.27552,0.07412 -0.72056,0.22388 -1.54851,0.477051 -2.15572,0.659156 -1.34049,0.402048 -1.2562,0.36671 -1.25013,0.524223 0.003,0.07679 0.0219,0.240907 0.042,0.364681 0.0558,0.343217 -0.0699,0.295115 -0.28159,-0.107782 -0.18608,-0.354104 -0.22499,-0.581735 -0.11656,-0.681899 0.071,-0.06554 0.51391,-0.245362 1.58262,-0.642479 0.36481,-0.135555 0.87652,-0.327511 1.13709,-0.426565 1.33554,-0.507697 1.44556,-0.54186 1.51596,-0.470881 0.0541,0.0546 0.86504,2.333554 1.01852,2.862627 0.0227,0.07817 0.0558,0.190107 0.0737,0.24874 0.0486,0.159857 -0.0512,0.13024 -0.15972,-0.04739 z m -4.81988,-2.298583 c -0.0274,-0.01913 -0.10138,-0.120087 -0.16432,-0.224322 -0.0629,-0.104236 -0.20764,-0.289719 -0.32157,-0.41219 -0.11391,-0.122472 -0.19493,-0.242408 -0.18002,-0.266523 0.0149,-0.02413 0.17138,-0.129769 0.34775,-0.234789 0.44106,-0.262638 1.42247,-0.995175 1.70148,-1.269949 l 0.23008,-0.226613 0.032,-0.619026 c 0.0176,-0.340473 0.0564,-0.960157 0.0863,-1.377092 0.0298,-0.416929 0.0688,-0.992598 0.0864,-1.279194 0.0258,-0.417371 0.0463,-0.521141 0.10324,-0.521141 0.0856,0 0.12678,0.228445 0.19208,1.066031 0.0254,0.325731 0.0672,0.8374 0.0929,1.137086 0.0257,0.299674 0.0594,0.742445 0.075,0.98391 0.022,0.341031 0.0458,0.448017 0.10661,0.479226 0.07,0.03594 0.20568,0.05519 0.88375,0.125286 0.45334,0.04687 0.83987,0.137521 0.86494,0.202807 0.0145,0.03774 -0.018,0.209802 -0.0721,0.382382 -0.0541,0.172574 -0.11262,0.404328 -0.12997,0.515023 -0.0356,0.226939 -0.16905,0.423623 -0.25248,0.37206 -0.0343,-0.02117 -0.0551,-0.174911 -0.0551,-0.407462 0,-0.205388 -0.016,-0.383091 -0.0355,-0.394896 -0.0195,-0.0118 -0.38981,-0.03576 -0.82279,-0.05327 l -0.78727,-0.03187 -0.32611,0.278396 c -0.40591,0.346503 -0.73295,0.54767 -1.24999,0.768922 l -0.40272,0.172335 0.0166,0.163183 c 0.009,0.08974 0.0333,0.195154 0.0537,0.234249 0.0204,0.03908 0.0521,0.161676 0.0705,0.272424 0.0335,0.202411 -0.013,0.256026 -0.14329,0.165102 z"
   id="path2"
   style="stroke-width:0.0505372" /><path
   d="m 23.970156,297.34775 c -0.0698,-0.0698 -0.0229,-0.21251 0.14608,-0.44404 0.0977,-0.13393 0.3731,-0.50729 0.61196,-0.82972 0.23885,-0.32243 0.58865,-0.81623 0.77731,-1.09732 0.42735,-0.63671 1.23523,-1.76718 1.46563,-2.05089 0.0952,-0.11726 0.35395,-0.47971 0.57491,-0.80547 0.45138,-0.66537 0.76554,-1.1107 1.32023,-1.87143 0.42165,-0.57831 0.64309,-0.88962 1.61755,-2.27418 0.36679,-0.52114 0.84123,-1.18211 1.05425,-1.46871 0.21305,-0.28664 0.41854,-0.56738 0.45664,-0.62383 0.43173,-0.6399 0.89455,-1.30249 1.14097,-1.63336 0.16624,-0.22323 0.3982,-0.54095 0.51548,-0.70606 0.11726,-0.1651 0.28783,-0.40164 0.37903,-0.52563 0.0912,-0.124 0.33183,-0.4664 0.53473,-0.76089 0.2029,-0.2945 0.46408,-0.67108 0.58037,-0.83689 0.17247,-0.24582 0.21148,-0.33978 0.21148,-0.50932 0,-0.16792 0.0162,-0.20789 0.0845,-0.20789 0.0972,0 0.57875,0.46887 0.57875,0.56354 0,0.0636 -0.36659,0.64535 -1.25716,1.9949 -0.26653,0.4039 -0.6543,1.01155 -0.86176,1.35031 -0.20743,0.33875 -0.60973,0.97046 -0.894,1.40381 -0.64692,0.98619 -1.12511,1.72979 -1.50272,2.33669 -0.16133,0.25928 -0.64511,1.00867 -1.07508,1.6653 -0.42996,0.65663 -0.94166,1.45679 -1.13709,1.77805 -0.19544,0.32131 -0.67512,1.06993 -1.06603,1.66363 -0.39087,0.59371 -0.84048,1.28709 -0.99906,1.54083 -0.89092,1.42526 -1.01646,1.63867 -0.98164,1.66904 0.0362,0.0316 0.53302,0.2289 1.01827,0.40446 0.22925,0.0829 0.3242,0.19915 0.21786,0.26662 -0.0725,0.046 -3.46589,0.0542 -3.51157,0.009 z m 38.84135,-0.0179 c -0.0504,-0.0815 0.065,-0.17846 0.48339,-0.40654 0.62843,-0.34255 0.95718,-0.612 1.0871,-0.89111 0.0615,-0.13205 0.11164,-0.31469 0.11144,-0.4059 -0.001,-0.58542 -0.70216,-2.24168 -1.8347,-4.33513 -0.16917,-0.31269 -0.46864,-0.87767 -0.66552,-1.25554 -0.19687,-0.37785 -0.40749,-0.7665 -0.46804,-0.86373 -0.0606,-0.0972 -0.1101,-0.18683 -0.1101,-0.19916 0,-0.0123 -0.18485,-0.33791 -0.41077,-0.7235 -0.22593,-0.38556 -0.5163,-0.88228 -0.64522,-1.10373 -0.40121,-0.68918 -1.96367,-3.75132 -2.24015,-4.39042 -0.37989,-0.87803 -0.57982,-1.43712 -0.7764,-2.17153 -0.19065,-0.71212 -0.31686,-1.42186 -0.37912,-2.13206 -0.0229,-0.26059 -0.0565,-0.55258 -0.0749,-0.6489 -0.0427,-0.2242 0.005,-0.41713 0.10417,-0.41713 0.0422,0 0.5456,0.31448 1.11868,0.69882 1.13451,0.76095 1.40473,0.9404 3.20669,2.12974 0.66325,0.43775 1.27419,0.85494 1.35763,0.92716 0.1081,0.0935 0.16852,0.20255 0.21001,0.37903 0.10731,0.45642 0.39261,1.20056 0.72168,1.88236 0.2348,0.48647 0.88788,1.49266 1.58363,2.43998 0.31801,0.43298 0.60988,0.83588 1.167,1.61087 0.11239,0.15634 0.4282,0.59341 0.70181,0.97127 0.46983,0.64886 0.86954,1.27501 1.22497,1.91885 0.0863,0.15635 0.34268,0.58275 0.5697,0.94757 0.48775,0.78373 1.00484,1.6468 1.41929,2.36893 0.16451,0.28664 0.41483,0.71844 0.55626,0.9595 0.14143,0.2411 0.24998,0.47562 0.24122,0.52114 -0.0147,0.0761 -0.12431,0.0838 -1.36496,0.0954 -0.74199,0.007 -1.37886,0.001 -1.41535,-0.0129 -0.0539,-0.0207 -0.0505,-0.0429 0.0186,-0.11921 0.0467,-0.0516 0.10976,-0.0938 0.1402,-0.0938 0.0304,0 0.18737,-0.064 0.34876,-0.14214 0.56658,-0.27444 0.57926,-0.63277 0.055,-1.55351 -0.297,-0.52159 -1.23468,-2.00819 -2.04696,-3.24535 -0.17473,-0.26612 -0.39747,-0.62135 -0.495,-0.78944 -0.23253,-0.40074 -1.46936,-2.04154 -1.94972,-2.58649 -0.38045,-0.43161 -0.86667,-0.85003 -0.95253,-0.81981 -0.0255,0.009 0.11766,0.23365 0.31817,0.49925 0.77513,1.02676 1.25958,1.65409 1.3695,1.7733 0.0917,0.0995 0.11154,0.16544 0.0996,0.33165 l -0.0149,0.20746 -0.30776,-0.0164 c -0.41013,-0.0219 -0.47399,-0.0611 -0.47399,-0.29092 0,-0.15559 -0.053,-0.25666 -0.32841,-0.6261 -0.18062,-0.24231 -0.3885,-0.52392 -0.46194,-0.6258 -0.75644,-1.04956 -1.04794,-1.38957 -1.30628,-1.52365 -0.27366,-0.14205 -0.41863,-0.11807 -0.58214,0.0963 -0.14639,0.19192 -0.15552,0.51249 -0.0248,0.87015 0.0851,0.23286 0.63894,1.29279 1.12354,2.1502 0.11359,0.20097 0.40128,0.75533 0.6393,1.23185 0.23804,0.47655 0.56525,1.10095 0.72713,1.38759 0.50916,0.90169 1.27757,2.33962 1.67363,3.13205 0.20979,0.41969 0.5739,1.10635 0.80915,1.52592 0.52741,0.94064 0.66826,1.21683 0.66826,1.31022 0,0.0642 -0.25967,0.0726 -2.24769,0.0726 -1.51026,0 -2.2577,-0.0162 -2.27827,-0.0494 z m -32.83854,-0.11618 c -0.0681,-0.17738 0.10994,-0.98542 0.41754,-1.89534 0.4548,-1.3454 1.3787,-3.06533 2.35417,-4.38253 0.87096,-1.17611 2.11367,-2.47011 3.41768,-3.55873 1.39558,-1.16508 3.67724,-2.48855 5.02213,-2.91296 0.43221,-0.1364 0.50365,-0.15722 0.80546,-0.23457 0.86697,-0.22227 1.46527,-0.27242 3.26915,-0.27404 1.70871,-0.002 2.34396,0.0437 3.41126,0.24306 1.36046,0.25408 2.63546,0.76726 3.87124,1.55816 1.11814,0.71561 1.44006,0.97931 2.4412,1.99976 0.9686,0.98729 1.39518,1.50262 1.92582,2.32653 0.15945,0.24755 0.35538,0.54605 0.4354,0.6633 0.55708,0.81632 1.37739,2.33147 1.693,3.12698 0.0775,0.19544 0.29954,0.72844 0.49334,1.18449 0.19381,0.45602 0.37551,0.8931 0.40379,0.97128 0.0283,0.0782 0.13117,0.3492 0.22864,0.6023 0.14574,0.37837 0.16664,0.47291 0.11764,0.53195 -0.0495,0.0597 -0.19921,0.0706 -0.88475,0.0647 -0.52665,-0.005 -0.83887,-0.0256 -0.86303,-0.0582 -0.0342,-0.0461 -0.0827,-0.20109 -0.19388,-0.61958 -0.13023,-0.4902 -0.45129,-1.49536 -0.67345,-2.10837 -0.62494,-1.72463 -1.18252,-2.78076 -2.36074,-4.47183 -0.5002,-0.71793 -1.48544,-1.8531 -1.71488,-1.97595 -0.0636,-0.034 -0.24079,-0.0262 -0.5979,0.0266 -1.0623,0.15698 -1.81454,0.43077 -2.63956,0.96066 -0.9783,0.62838 -1.69244,1.52774 -2.24789,2.831 -0.31577,0.74086 -0.45968,1.92278 -0.358,2.9401 l 0.0334,0.33425 -0.54312,0.0566 c -0.70833,0.0738 -0.86398,0.0714 -0.93534,-0.0145 -0.0777,-0.0936 -0.0445,-0.39531 0.1351,-1.23179 0.37517,-1.74672 0.76893,-2.73113 1.61082,-4.0272 0.31093,-0.47865 1.13148,-1.27531 1.60082,-1.55412 0.39482,-0.23459 1.11702,-0.56284 1.36748,-0.62151 0.45516,-0.10664 0.68236,-0.13376 1.29108,-0.15407 0.47561,-0.0159 0.67427,-0.039 0.67219,-0.0783 -0.006,-0.11824 -0.79009,-0.73111 -1.57954,-1.23512 -0.65324,-0.41706 -2.3245,-1.1616 -3.06057,-1.36355 -1.87206,-0.51355 -3.68649,-0.5738 -5.47217,-0.18171 -0.13029,0.0286 -0.30085,0.0635 -0.37903,0.0776 -0.44565,0.0802 -1.47872,0.42917 -2.31728,0.78272 -2.1449,0.90431 -3.87206,2.23541 -5.51815,4.2527 -0.91053,1.11592 -2.11463,3.54797 -2.42993,4.90792 -0.0242,0.10423 -0.0656,0.27479 -0.0921,0.37903 -0.11538,0.45385 -0.22067,1.08543 -0.27437,1.64589 -0.0218,0.22772 -0.0664,0.44625 -0.0991,0.48562 -0.0879,0.10589 -1.74303,0.10655 -1.78361,5.9e-4 z m 10.32929,-2.08213 c -0.017,-0.0445 -0.005,-0.16987 0.0267,-0.27868 0.0797,-0.27334 0.21871,-0.82775 0.26338,-1.05067 0.0156,-0.0782 0.0497,-0.23808 0.0755,-0.35534 0.29099,-1.31977 0.41729,-2.75266 0.30696,-3.48231 -0.0537,-0.35546 -0.25946,-0.85378 -0.43902,-1.06356 -0.30762,-0.35937 -0.93039,-0.52948 -1.40908,-0.38491 -0.68827,0.20787 -0.93181,0.30069 -1.4491,0.55232 -0.51948,0.25269 -1.74606,0.9596 -2.22526,1.28244 -0.20797,0.14012 -0.33249,0.14455 -0.33249,0.0118 0,-0.18207 1.15129,-1.27414 1.82409,-1.7303 0.48679,-0.33003 1.21446,-0.71338 1.63457,-0.86115 0.67457,-0.23727 0.72324,-0.24668 1.27763,-0.24668 0.51781,0 0.54878,0.006 0.88779,0.16896 0.79545,0.3826 1.31143,1.21506 1.48099,2.38949 0.0674,0.46672 0.0394,2.46096 -0.0425,3.03223 -0.028,0.19544 -0.0637,0.49512 -0.0792,0.66598 l -0.0283,0.31063 0.29449,0.15696 c 0.26285,0.1401 1.11389,0.46686 1.49186,0.57279 0.36967,0.10361 0.42641,0.12909 0.42641,0.1914 0,0.11625 -0.32549,0.14195 -2.16668,0.17111 -1.65686,0.0262 -1.78987,0.0224 -1.81863,-0.0525 z m -5.23009,-7.81304 c 0,-0.11623 0.23202,-0.54782 0.48529,-0.90265 0.0744,-0.10428 0.20825,-0.29621 0.29737,-0.4265 0.22818,-0.33356 0.97547,-1.30092 1.39675,-1.80806 0.59285,-0.71369 1.28612,-1.60941 1.60107,-2.06864 0.32626,-0.47574 0.81026,-1.40619 0.91371,-1.75668 0.0745,-0.25248 0.22524,-0.42345 0.32105,-0.36423 0.0494,0.0305 0.0528,0.098 0.016,0.31762 -0.10697,0.63789 -0.34699,1.24004 -0.87596,2.19766 -0.6681,1.2095 -1.21784,2.46945 -1.21784,2.79102 0,0.20541 -0.11881,0.31591 -0.50856,0.47303 -0.39719,0.1601 -0.76225,0.38568 -1.13143,0.69908 -1.19227,1.01225 -1.29749,1.08103 -1.29749,0.84831 z m 19.76356,-1.11688 c -0.55606,-0.43285 -1.01316,-0.71166 -1.35667,-0.82754 -0.13029,-0.044 -0.27736,-0.11567 -0.32684,-0.15939 -0.10451,-0.0924 -0.64389,-1.17802 -0.64419,-1.29669 -1.4e-4,-0.0441 -0.019,-0.0917 -0.0419,-0.10589 -0.023,-0.0142 -0.0559,-0.0847 -0.0732,-0.15678 -0.0319,-0.13258 -0.087,-0.35432 -0.17411,-0.69953 -0.0613,-0.24305 -0.12924,-0.55338 -0.18668,-0.85282 -0.025,-0.13029 -0.0678,-0.3435 -0.095,-0.47379 -0.0804,-0.38407 -0.13397,-0.64803 -0.18286,-0.90016 -0.0464,-0.23935 -0.10932,-0.50613 -0.20114,-0.85282 -0.0276,-0.10423 -0.0533,-0.27479 -0.0571,-0.37902 -0.006,-0.15647 0.009,-0.18952 0.0824,-0.18952 0.0684,0 0.122,0.0888 0.229,0.37903 0.0768,0.20846 0.18311,0.49629 0.23615,0.6396 0.27949,0.75533 0.56909,1.38527 0.9039,1.96619 0.53236,0.92368 0.74634,1.28718 1.11556,1.89515 0.22156,0.36481 0.48943,0.81254 0.59528,0.99497 0.10582,0.18241 0.32635,0.53418 0.49007,0.78177 0.28339,0.42853 0.33399,0.56414 0.22418,0.60068 -0.027,0.009 -0.26853,-0.15455 -0.53686,-0.36341 z m -15.30972,-1.67348 c 0,-0.0887 0.17452,-0.24044 0.90016,-0.78262 0.80643,-0.6025 0.97966,-0.74977 0.93474,-0.7947 -0.0415,-0.0415 -0.33906,-0.0885 -1.00034,-0.15803 -0.48135,-0.0506 -0.5977,-0.0969 -0.5977,-0.23774 0,-0.0714 0.10327,-0.0883 0.86465,-0.14101 1.45996,-0.10109 1.94097,-0.13714 2.28852,-0.1715 0.28098,-0.0277 0.34704,-0.0202 0.415,0.0478 0.0444,0.0445 0.069,0.10003 0.0544,0.1235 -0.0327,0.0529 -1.20016,0.74669 -1.86963,1.11105 -0.55955,0.30453 -1.1242,0.6347 -1.52566,0.89219 -0.27615,0.1771 -0.46423,0.22209 -0.46423,0.11105 z m 10.6603,-1.07331 c -0.22149,-0.0743 -0.91442,-0.29975 -1.53981,-0.50103 -1.92673,-0.62009 -2.08092,-0.67371 -2.09987,-0.73062 -0.0315,-0.0946 0.13854,-0.17724 0.48614,-0.23637 0.18398,-0.0313 0.41978,-0.0749 0.52402,-0.0968 0.10423,-0.0219 0.30678,-0.0622 0.4501,-0.0895 0.14331,-0.0273 0.32454,-0.0623 0.40271,-0.0778 0.36317,-0.0721 0.6351,-0.1243 0.85282,-0.16384 0.25453,-0.0462 0.58204,-0.11597 0.92387,-0.19679 0.32998,-0.078 0.687,-0.0775 0.687,0.001 0,0.0606 -0.13295,0.11129 -0.6633,0.25284 -0.10423,0.0279 -0.37073,0.10849 -0.59225,0.17926 -0.36289,0.11595 -0.56363,0.17518 -0.88834,0.26212 -0.15511,0.0415 -0.13102,0.11036 0.0711,0.20294 0.0977,0.0448 0.23097,0.11552 0.29611,0.15724 0.2462,0.15765 1.27036,0.75169 1.29598,0.75169 0.0698,0 0.45704,0.2664 0.45704,0.31438 0,0.0564 -0.10838,0.11408 -0.20523,0.10927 -0.0305,-0.002 -0.23657,-0.0635 -0.45807,-0.13783 z m 12.46045,-3.47211 c -0.0912,-0.0544 -0.32573,-0.20819 -0.52114,-0.34186 -0.19544,-0.13367 -0.60053,-0.38929 -0.90017,-0.56804 -0.63824,-0.38069 -0.75841,-0.4562 -1.82409,-1.14603 -0.81607,-0.52822 -1.11728,-0.71854 -1.80038,-1.13739 -0.54464,-0.33397 -0.92721,-0.5731 -1.38164,-0.86343 -0.43679,-0.27912 -0.34655,-0.26637 -1.0347,-0.14622 -0.64409,0.11245 -1.31397,0.22439 -1.70563,0.285 -0.15635,0.0242 -0.40153,0.0655 -0.54484,0.0919 -0.14331,0.0263 -0.39916,0.0697 -0.56854,0.0964 -0.16938,0.0267 -0.55313,0.0901 -0.85282,0.14097 -0.49288,0.0836 -1.40458,0.22712 -2.15571,0.33932 -0.15635,0.0234 -0.41752,0.0632 -0.58037,0.0884 -0.16286,0.0253 -0.42937,0.0667 -0.59225,0.0919 -0.61256,0.0951 -1.13384,0.18181 -1.71745,0.28568 -0.3694,0.0657 -0.76184,0.13159 -1.10155,0.18482 -0.14984,0.0235 -0.41101,0.0681 -0.58038,0.0991 -0.29497,0.0541 -0.51825,0.093 -1.08968,0.18982 -0.14332,0.0243 -0.37784,0.0656 -0.52113,0.0919 -0.14332,0.0262 -0.34587,0.0594 -0.4501,0.0737 -0.10423,0.0143 -0.29612,0.0459 -0.42641,0.0702 -0.13029,0.0243 -0.37547,0.0674 -0.54484,0.0959 -0.16938,0.0284 -0.41456,0.0711 -0.54484,0.0948 -0.26438,0.048 -0.71955,0.12549 -1.11338,0.18951 -0.27227,0.0442 -0.66371,0.10986 -1.12526,0.18862 -0.14984,0.0256 -0.63485,0.10113 -1.07786,0.16792 -0.44299,0.0668 -0.88253,0.14181 -0.97678,0.16671 -0.0942,0.0249 -0.21149,0.0447 -0.26058,0.0439 -0.0491,-5.8e-4 -0.35105,0.0468 -0.67104,0.10566 l -0.58173,0.10703 0.0294,0.13363 c 0.0162,0.0735 0.0807,0.26004 0.14351,0.41457 0.15004,0.36924 0.14805,0.43526 -0.0126,0.41626 -0.12477,-0.0148 -0.24793,-0.14693 -0.7721,-0.8286 -0.18003,-0.23412 -0.18985,-0.26487 -0.21958,-0.68787 -0.0356,-0.50668 -0.0245,-0.5273 0.31297,-0.57956 0.11726,-0.0181 0.54368,-0.0854 0.94757,-0.14941 0.4039,-0.064 0.86226,-0.13633 1.01863,-0.16065 0.15635,-0.0243 0.49747,-0.0783 0.75805,-0.12003 0.26058,-0.0417 0.62303,-0.0969 0.80547,-0.1228 0.50318,-0.0713 1.0919,-0.16364 1.80038,-0.2824 0.15636,-0.0262 0.4122,-0.0677 0.56855,-0.0922 0.33805,-0.053 0.75477,-0.12192 1.11338,-0.18414 0.14332,-0.0249 0.40982,-0.0698 0.59224,-0.0999 0.58942,-0.0971 0.89481,-0.14836 1.16079,-0.19485 0.3871,-0.0676 0.77171,-0.13179 1.07786,-0.17976 0.25697,-0.0403 0.50593,-0.0828 1.17261,-0.20028 0.36541,-0.0644 0.73244,-0.12672 1.08968,-0.18508 0.15635,-0.0255 0.40154,-0.0659 0.54485,-0.0897 0.14332,-0.0238 0.39916,-0.0653 0.56854,-0.0923 0.16938,-0.027 0.44654,-0.072 0.61595,-0.10011 0.16937,-0.0281 0.52113,-0.0821 0.78175,-0.12012 0.26058,-0.038 0.56971,-0.0907 0.68701,-0.11705 0.18409,-0.0414 2.32268,-0.37432 2.86642,-0.4462 0.10423,-0.0138 0.31743,-0.0456 0.47378,-0.0706 0.15635,-0.0251 0.43351,-0.069 0.61594,-0.0977 0.18242,-0.0287 0.45958,-0.0734 0.61596,-0.0993 0.15634,-0.026 0.41219,-0.0662 0.56853,-0.0894 0.15636,-0.0231 0.34052,-0.0565 0.40926,-0.0742 0.0687,-0.0176 0.16719,-0.01 0.21878,0.0181 0.12955,0.0693 1.97247,1.4578 2.52267,1.9006 0.60639,0.48801 1.00942,0.79627 1.3503,1.03278 0.34809,0.24153 0.71454,0.52366 1.29689,0.99851 0.45424,0.37039 0.71686,0.5688 1.20965,0.91397 0.54348,0.38067 0.78636,0.66299 0.56122,0.65233 -0.0456,-0.002 -0.15754,-0.0484 -0.24874,-0.10276 z m -25.0159,-2.73751 c 0,-0.0529 0.16338,-0.37807 0.36306,-0.72253 0.45633,-0.78717 1.0583,-1.86896 1.0583,-1.90192 0,-0.0137 0.22662,-0.48918 0.5036,-1.05658 0.89052,-1.82423 1.34541,-2.81401 1.66095,-3.61376 0.38576,-0.97769 0.91549,-2.33946 1.15195,-2.96117 0.0991,-0.26058 0.23669,-0.6207 0.30575,-0.8002 0.0691,-0.17955 0.20003,-0.55268 0.29103,-0.82912 0.18881,-0.57364 0.30397,-0.8186 0.37357,-0.79459 0.0266,0.009 0.0448,0.0786 0.0405,0.15428 -0.007,0.12567 -0.0322,0.24174 -0.15763,0.72986 -0.0234,0.0912 -0.0732,0.29375 -0.11058,0.45009 -0.12877,0.53868 -0.7766,2.97295 -0.93302,3.50602 -0.0535,0.18241 -0.12073,0.41693 -0.14933,0.52114 -0.0286,0.10423 -0.0888,0.30678 -0.13385,0.45009 -0.045,0.14332 -0.13057,0.42049 -0.19012,0.61595 -0.0596,0.19544 -0.16582,0.53655 -0.23614,0.75806 -0.27379,0.86246 -0.41647,1.31684 -0.52073,1.65822 -0.2081,0.6815 -0.5739,1.78047 -0.76478,2.29788 -0.3668,0.99406 -0.43629,1.16225 -0.50313,1.21774 -0.0369,0.0307 -0.17739,0.0737 -0.31209,0.0957 -0.2502,0.0408 -0.48818,0.0876 -0.9082,0.17863 -0.78429,0.17002 -0.82911,0.17252 -0.82911,0.0463 z m 4.06066,-1.16529 c -0.0698,-0.0698 -0.0265,-0.22222 0.19731,-0.69291 0.54196,-1.14012 1.2557,-2.87582 1.5423,-3.75051 0.34908,-1.06548 0.99503,-3.11946 1.11879,-3.55751 0.0221,-0.0782 0.0859,-0.30205 0.14191,-0.49748 0.0559,-0.19544 0.11995,-0.41931 0.14218,-0.49748 0.0222,-0.0782 0.0617,-0.21676 0.0878,-0.30796 0.15874,-0.55561 0.22392,-0.80814 0.28111,-1.08919 0.0207,-0.10163 0.0653,-0.17141 0.11583,-0.18114 0.0699,-0.0134 0.0822,0.0229 0.0822,0.2425 0,0.14208 -0.0429,0.50076 -0.0953,0.79707 -0.0524,0.2963 -0.13805,0.80526 -0.19029,1.13097 -0.0918,0.57279 -0.21201,1.26333 -0.36022,2.07021 -0.0393,0.21355 -0.0909,0.51204 -0.11475,0.6633 -0.0239,0.15126 -0.0667,0.38161 -0.0952,0.51189 -0.0285,0.13029 -0.0708,0.35415 -0.0939,0.49747 -0.0408,0.25276 -0.0923,0.52822 -0.19042,1.01864 -0.0261,0.13028 -0.0687,0.34349 -0.0948,0.47378 -0.0783,0.39164 -0.13195,0.65051 -0.18648,0.90017 -0.0284,0.13029 -0.0707,0.33283 -0.094,0.45009 -0.0232,0.11726 -0.0661,0.30915 -0.0952,0.42641 -0.10056,0.40502 -0.14949,0.64035 -0.17416,0.8377 -0.0136,0.10896 -0.06,0.22853 -0.10316,0.26572 -0.11517,0.0993 -0.37338,0.17576 -0.59477,0.17606 -0.10687,0 -0.26891,0.0195 -0.36012,0.0431 -0.23843,0.0616 -0.82724,0.10854 -0.86671,0.0691 z m 16.26741,-1.54294 -1.15644,-1.13967 -0.47723,0.0279 c -0.26248,0.0154 -0.71217,0.0421 -0.99933,0.0594 -0.58142,0.0351 -0.57526,0.0377 -0.67932,-0.28887 -0.0332,-0.10423 -0.0788,-0.23216 -0.10126,-0.28427 -0.1004,-0.23276 -0.64001,-1.83839 -0.75629,-2.25047 -0.0331,-0.11726 -0.0773,-0.25585 -0.0982,-0.30797 -0.0209,-0.0521 -0.0519,-0.14805 -0.0689,-0.2132 -0.017,-0.0651 -0.0488,-0.18241 -0.0708,-0.26058 -0.17532,-0.62298 -0.49992,-1.91789 -0.61762,-2.46369 -0.0787,-0.36482 -0.16309,-0.73795 -0.18765,-0.82911 -0.0245,-0.0912 -0.0553,-0.22979 -0.0682,-0.30796 -0.0129,-0.0782 -0.0468,-0.24874 -0.0752,-0.37903 -0.0585,-0.26826 -0.11754,-0.55424 -0.18577,-0.90017 -0.0257,-0.13029 -0.07,-0.3435 -0.0985,-0.47379 -0.0284,-0.13028 -0.0711,-0.33283 -0.0948,-0.45009 -0.0237,-0.11726 -0.0625,-0.30915 -0.0862,-0.42641 -0.0238,-0.11726 -0.0589,-0.25034 -0.0782,-0.29572 -0.0413,-0.0976 0.0946,-0.17046 0.19148,-0.10269 0.28598,0.19997 0.9834,0.76847 1.64726,1.34277 0.43882,0.37961 1.03581,0.8846 1.3266,1.12223 0.78318,0.6399 0.73517,0.56278 0.76397,1.22795 0.0229,0.52973 0.0754,0.9554 0.16634,1.34858 0.0211,0.0912 0.0744,0.32573 0.11854,0.52115 0.13341,0.59107 0.39727,1.38375 0.7807,2.34522 0.0831,0.20847 0.58613,1.23432 1.11773,2.27968 1.09241,2.14804 1.08145,2.12403 1.00115,2.19064 -0.0421,0.0349 -0.36919,-0.25934 -1.21401,-1.09186 z m -8.36036,-0.053 c -0.0109,-0.0571 -0.0424,-0.22095 -0.0702,-0.36428 -0.0277,-0.14332 -0.0625,-0.34587 -0.0773,-0.45009 -0.32994,-2.33062 -0.47407,-4.16669 -0.61368,-7.81759 -0.014,-0.36483 -0.0495,-0.89901 -0.0791,-1.18707 -0.0556,-0.54206 -0.0244,-0.73178 0.12057,-0.73178 0.0693,0 0.21827,0.53959 0.21807,0.78999 -5e-5,0.0827 0.02,0.25327 0.0446,0.37904 0.0246,0.12576 0.0671,0.39922 0.0945,0.60771 0.14847,1.13071 0.29735,2.17875 0.36007,2.53474 0.039,0.22149 0.1262,0.73319 0.1937,1.13708 0.1556,0.931 0.18899,1.11152 0.25417,1.374 0.0291,0.11727 0.0715,0.29849 0.0942,0.40273 0.0227,0.10423 0.0629,0.26414 0.0895,0.35533 0.0266,0.0912 0.0684,0.24045 0.093,0.33165 0.16305,0.60428 0.58527,1.71625 0.8844,2.32911 0.15928,0.32635 0.10232,0.34896 -0.98285,0.39013 -0.59214,0.0224 -0.60427,0.0209 -0.62363,-0.0808 z m 6.12409,-10.06802 c -0.22514,-0.20063 -0.5556,-0.49678 -0.73436,-0.65815 -0.17876,-0.16134 -0.64485,-0.55853 -1.0357,-0.88262 -0.39087,-0.32411 -0.98563,-0.83897 -1.32165,-1.14417 -0.70965,-0.64455 -0.55515,-0.60877 -1.54477,-0.35773 -0.0912,0.0231 -0.25111,0.0662 -0.35534,0.0957 -0.19568,0.0554 -0.38329,0.10406 -0.71065,0.1842 -0.10423,0.0255 -0.2748,0.0705 -0.37903,0.10008 -0.10423,0.0295 -0.26414,0.0722 -0.35534,0.0948 -0.0912,0.0226 -0.25111,0.0652 -0.35533,0.0948 -0.10424,0.0295 -0.26414,0.0715 -0.35534,0.0932 -0.0912,0.0217 -0.41101,0.10676 -0.71065,0.18891 -0.29968,0.0822 -0.63015,0.16855 -0.73436,0.192 -0.17956,0.0404 -0.77079,0.19116 -1.77668,0.45308 -0.45527,0.11855 -0.90922,0.22886 -1.25555,0.3051 -0.10423,0.023 -0.28545,0.0659 -0.40272,0.0956 -0.11726,0.0296 -0.29329,0.065 -0.39117,0.0787 -0.0979,0.0137 -0.18975,0.0439 -0.20415,0.0672 -0.0144,0.0233 -0.0863,0.0424 -0.15975,0.0424 -0.1247,0 -0.47677,0.12002 -0.47677,0.16253 0,0.0105 0.0431,0.11978 0.0959,0.2428 0.10007,0.23343 0.0882,0.4001 -0.0284,0.4001 -0.0376,0 -0.2248,-0.11572 -0.41605,-0.25715 l -0.34772,-0.25715 -0.029,-0.3453 c -0.0314,-0.37484 0.0274,-0.51437 0.21711,-0.51437 0.0512,0 0.23442,-0.0458 0.40722,-0.10186 0.45672,-0.1481 0.80602,-0.25621 1.04854,-0.32454 0.11727,-0.033 0.33048,-0.097 0.47379,-0.14214 0.14332,-0.0451 0.35653,-0.10884 0.47379,-0.14158 0.11726,-0.0327 0.34112,-0.0988 0.49748,-0.14691 0.41299,-0.12697 1.60066,-0.4641 2.01359,-0.57157 0.51892,-0.13508 0.71981,-0.18891 0.85282,-0.22852 0.0651,-0.0194 0.19307,-0.0567 0.28428,-0.0829 0.50459,-0.14479 0.59623,-0.1751 0.63722,-0.21076 0.0248,-0.0215 0.0873,-0.0391 0.13898,-0.0391 0.0517,0 0.21265,-0.0397 0.35771,-0.0882 0.14505,-0.0485 0.42364,-0.13674 0.61907,-0.19609 0.19544,-0.0594 0.47261,-0.14474 0.61595,-0.18974 0.14332,-0.045 0.35653,-0.10887 0.47379,-0.14191 0.11726,-0.033 0.33046,-0.097 0.47379,-0.14214 0.14332,-0.0451 0.355,-0.1109 0.4704,-0.14617 l 0.20983,-0.0641 0.26396,0.30469 c 0.14517,0.16758 0.49924,0.55071 0.78681,0.85135 0.61003,0.63783 1.36784,1.46967 1.70421,1.87084 0.13,0.15501 0.52958,0.5842 0.88794,0.95378 0.42081,0.43395 0.65157,0.70748 0.65157,0.77231 0,0.17883 -0.1525,0.10745 -0.57516,-0.26919 z m -12.19714,-2.84069 c 0.0166,-0.0977 0.0491,-0.30559 0.0723,-0.46194 0.0232,-0.15635 0.0985,-0.60407 0.16724,-0.99498 0.0688,-0.39087 0.14265,-0.81728 0.16419,-0.94757 0.0745,-0.45087 0.29565,-1.84895 0.33722,-2.13206 0.023,-0.15635 0.0647,-0.43351 0.0927,-0.61594 0.028,-0.18242 0.0699,-0.45958 0.093,-0.61595 0.0231,-0.15635 0.0658,-0.44418 0.0949,-0.6396 0.0291,-0.19544 0.0739,-0.51523 0.0995,-0.71065 0.0256,-0.19544 0.0669,-0.50459 0.0917,-0.68701 0.0796,-0.58633 0.13871,-1.03363 0.18459,-1.39765 0.0246,-0.19544 0.0684,-0.53656 0.0972,-0.75806 0.11638,-0.89425 0.23167,-1.91101 0.37872,-3.3402 0.0241,-0.23452 0.0669,-0.65027 0.0951,-0.92387 0.0832,-0.80774 0.20783,-2.21419 0.28539,-3.22175 0.0231,-0.29967 0.0547,-0.70474 0.0703,-0.90016 0.0487,-0.60989 0.23627,-3.50324 0.35778,-5.51967 0.0251,-0.41694 0.0662,-0.91796 0.0912,-1.11339 0.0741,-0.57774 0.0638,-0.85079 -0.0332,-0.88521 -0.2573,-0.0913 -0.33856,-0.38149 -0.14214,-0.50775 0.17354,-0.11152 2.81629,-1.16553 2.92242,-1.16553 0.10882,0 0.14586,0.0471 0.83366,1.05997 0.25986,0.38267 0.50037,0.73577 0.53448,0.78464 0.0413,0.0592 0.0456,0.099 0.0128,0.11927 -0.027,0.0168 -0.28491,-0.18912 -0.57304,-0.45743 -0.28811,-0.26831 -0.60887,-0.55086 -0.71278,-0.62788 l -0.18892,-0.14005 -0.29501,0.084 c -0.16224,0.0462 -0.41808,0.11921 -0.56854,0.16225 -0.21224,0.0607 -0.26655,0.0945 -0.2424,0.15081 0.0171,0.0399 0.0265,0.75219 0.0208,1.58287 l -0.0103,1.51031 -0.18056,0.1879 c -0.1129,0.1175 -0.21347,0.1815 -0.26839,0.17081 -0.0838,-0.0163 -0.0873,-0.0941 -0.0769,-1.69128 l 0.0109,-1.67414 -0.12936,0.0306 c -0.37155,0.0879 -0.62681,0.17641 -0.62681,0.21743 0,0.0254 0.024,0.0461 0.0533,0.0461 0.0391,0 0.0444,0.40062 0.0199,1.50308 -0.0184,0.82668 -0.0431,1.51874 -0.0549,1.53789 -0.0119,0.0191 -0.0441,0.49939 -0.0717,1.06719 -0.11115,2.28515 -0.27635,4.97504 -0.46786,7.61798 -0.0283,0.39087 -0.0726,1.01984 -0.0984,1.39765 -0.0258,0.37785 -0.0672,0.94282 -0.092,1.25555 -0.0248,0.3127 -0.0669,0.85635 -0.0936,1.20814 -0.055,0.72455 -0.1173,1.50313 -0.18963,2.36893 -0.0272,0.32572 -0.0682,0.8374 -0.091,1.13708 -0.11487,1.50566 -0.27918,3.3348 -0.38306,4.26408 -0.0277,0.24755 -0.07,0.68462 -0.0941,0.97127 -0.0795,0.94566 -0.1503,1.468 -0.20598,1.51966 -0.0302,0.028 -0.21483,0.0996 -0.41026,0.15914 -0.19543,0.0595 -0.40431,0.12721 -0.46416,0.15043 -0.0599,0.0232 -0.18479,0.0422 -0.27761,0.0422 h -0.16878 l 0.0301,-0.17767 z m 2.42315,-0.52832 c -0.0243,-0.0393 0.0437,-1.10899 0.16283,-2.56314 0.0267,-0.32573 0.10127,-1.27449 0.16574,-2.10836 0.0645,-0.83386 0.1393,-1.7826 0.16631,-2.10836 0.027,-0.32573 0.0701,-0.84806 0.0958,-1.16079 0.0256,-0.3127 0.0687,-0.83502 0.0956,-1.16078 0.0269,-0.32573 0.0699,-0.85873 0.0956,-1.18449 0.0907,-1.15235 0.13797,-1.73611 0.18801,-2.32158 0.0279,-0.32573 0.0707,-0.8374 0.0952,-1.13708 0.0467,-0.57037 0.10676,-1.29346 0.1869,-2.25048 0.0262,-0.3127 0.0699,-0.84568 0.0972,-1.18449 0.0273,-0.33875 0.0704,-0.8611 0.0959,-1.16079 0.0255,-0.29966 0.062,-0.81501 0.081,-1.14516 0.019,-0.33018 0.0516,-0.61727 0.0724,-0.63794 0.0208,-0.0207 0.0741,-0.0148 0.11845,0.013 0.0628,0.0394 0.0881,0.15446 0.1145,0.51948 0.0186,0.25787 0.0571,0.70337 0.0856,0.99002 0.0591,0.59568 0.11734,1.19303 0.18942,1.94255 0.0276,0.28664 0.0703,0.71302 0.0949,0.94757 0.0247,0.23452 0.0658,0.65026 0.0916,0.92387 0.0258,0.27361 0.0686,0.70004 0.0954,0.94757 0.0268,0.24755 0.0693,0.67396 0.0947,0.94757 0.0254,0.27362 0.068,0.71065 0.0947,0.97127 0.0267,0.26058 0.0695,0.68701 0.0951,0.94758 0.0256,0.26057 0.0679,0.687 0.094,0.94757 0.026,0.26058 0.0687,0.69766 0.0948,0.97127 0.0261,0.27361 0.07,0.71066 0.0974,0.97128 0.064,0.60705 0.12732,1.24397 0.18606,1.87144 0.0878,0.93847 0.14134,1.49307 0.19193,1.9899 0.0641,0.62894 0.12461,1.27702 0.21472,2.29787 0.0391,0.44299 0.081,0.83255 0.0931,0.86575 0.0337,0.0922 -0.14972,0.24766 -0.29225,0.24766 -0.0698,0 -0.19696,0.0253 -0.28256,0.0563 -0.20934,0.0757 -0.34857,-0.0408 -0.34857,-0.2915 0,-0.0952 -0.0417,-0.59831 -0.0928,-1.11788 -0.0511,-0.51962 -0.11568,-1.21123 -0.14358,-1.53699 -0.0787,-0.91891 -0.1403,-1.59131 -0.19308,-2.10836 -0.0266,-0.26058 -0.0708,-0.77226 -0.0982,-1.13708 -0.0527,-0.70201 -0.108,-1.35394 -0.18092,-2.13206 -0.1125,-1.20036 -0.14818,-1.59794 -0.18495,-2.06096 -0.0391,-0.49262 -0.0772,-0.6633 -0.14823,-0.6633 -0.0202,0 -0.0506,0.20788 -0.0676,0.46194 -0.017,0.25407 -0.0518,0.70712 -0.0774,1.0068 -0.0948,1.1106 -0.14362,1.71862 -0.25853,3.22174 -0.0647,0.84691 -0.12967,1.65707 -0.14429,1.80039 -0.0406,0.39829 -0.11294,1.23493 -0.16587,1.91885 -0.0262,0.33875 -0.0684,0.85044 -0.0939,1.13708 -0.0254,0.28665 -0.0677,0.78767 -0.0941,1.11339 -0.0856,1.05946 -0.0707,1.01494 -0.37818,1.12414 -0.19627,0.0697 -0.36309,0.0771 -0.39982,0.0176 z m 7.18184,-1.15361 c -0.13128,-0.16286 -0.32317,-0.39181 -0.42642,-0.50876 l -0.18772,-0.21266 -0.34781,0.12543 c -0.1913,0.069 -0.46987,0.17001 -0.61908,0.22451 -0.14919,0.0545 -0.32467,0.0991 -0.38997,0.0991 -0.13282,0 -0.13274,2.6e-4 -0.2106,-0.59225 -0.0274,-0.20847 -0.0808,-0.58159 -0.11867,-0.82912 -0.15901,-1.03929 -0.29141,-2.12988 -0.4127,-3.39942 -0.023,-0.24105 -0.0636,-0.64612 -0.0901,-0.90017 -0.12592,-1.20648 -0.24444,-2.57912 -0.37738,-4.37066 -0.028,-0.37785 -0.0716,-0.96415 -0.0969,-1.3029 -0.0252,-0.33875 -0.0664,-0.95707 -0.0915,-1.374 -0.0251,-0.41693 -0.0688,-1.12051 -0.097,-1.56352 -0.0283,-0.44299 -0.0711,-1.16787 -0.0952,-1.61088 -0.11302,-2.0803 -0.14161,-2.62378 -0.18448,-3.50601 -0.0253,-0.52114 -0.0585,-1.08614 -0.0738,-1.25554 -0.0152,-0.16939 -0.0493,-0.95824 -0.0757,-1.75304 -0.0263,-0.79479 -0.0602,-1.51409 -0.0752,-1.59849 -0.0208,-0.11743 -0.008,-0.1607 0.0536,-0.18442 0.0601,-0.023 0.23139,0.11929 0.6686,0.55545 l 0.58775,0.58674 0.003,0.4745 c 0.002,0.26097 0.0235,0.59173 0.048,0.73506 0.0245,0.14332 0.0656,0.56971 0.0914,0.94757 0.0846,1.23922 0.2413,2.93869 0.3757,4.07456 0.0262,0.22149 0.0687,0.59462 0.0943,0.82911 0.0257,0.23452 0.0704,0.60761 0.0993,0.82912 0.029,0.22149 0.0707,0.55196 0.0928,0.73435 0.022,0.18241 0.0638,0.50222 0.0927,0.71065 0.029,0.20847 0.0731,0.54959 0.0981,0.75806 0.025,0.20846 0.0773,0.59225 0.1163,0.85282 0.039,0.26058 0.10565,0.71899 0.14822,1.01862 0.0426,0.29967 0.10471,0.73673 0.1381,0.97128 0.0334,0.23452 0.10388,0.74623 0.15663,1.13708 0.13954,1.03399 0.13459,1.00003 0.29326,2.0136 0.0224,0.14332 0.0649,0.43115 0.0943,0.6396 0.0772,0.54697 0.15465,1.02474 0.28427,1.75303 0.0279,0.15635 0.0717,0.41219 0.0975,0.56855 0.14271,0.86489 0.29191,1.74373 0.37806,2.22677 0.0233,0.13029 0.0659,0.37547 0.0948,0.54484 0.0289,0.16938 0.0713,0.41456 0.0943,0.54484 0.023,0.13029 0.054,0.31152 0.0689,0.40272 0.0149,0.0912 0.0507,0.27553 0.0796,0.40961 0.0585,0.27167 0.0248,0.49058 -0.0753,0.49058 -0.0362,0 -0.17325,-0.13325 -0.30452,-0.29611 z m -2.55688,-25.20541 c -0.0517,-0.0847 -0.21619,-0.43095 -0.36546,-0.76948 -0.44361,-1.00599 -0.72399,-1.58767 -0.76513,-1.58712 -0.0212,3.3e-4 -0.14522,0.0337 -0.27552,0.0741 -0.72056,0.22388 -1.54851,0.47705 -2.15572,0.65916 -1.34049,0.40204 -1.2562,0.36671 -1.25013,0.52422 0.003,0.0768 0.0219,0.24091 0.042,0.36468 0.0558,0.34322 -0.0699,0.29511 -0.28159,-0.10778 -0.18608,-0.35411 -0.22499,-0.58174 -0.11656,-0.6819 0.071,-0.0655 0.51391,-0.24536 1.58262,-0.64248 0.36481,-0.13556 0.87652,-0.32751 1.13709,-0.42657 1.33554,-0.50769 1.44556,-0.54186 1.51596,-0.47088 0.0541,0.0546 0.86504,2.33356 1.01852,2.86263 0.0227,0.0782 0.0558,0.19011 0.0737,0.24874 0.0486,0.15986 -0.0512,0.13024 -0.15972,-0.0474 z m -4.81988,-2.29858 c -0.0274,-0.0191 -0.10138,-0.12009 -0.16432,-0.22433 -0.0629,-0.10423 -0.20764,-0.28971 -0.32157,-0.41219 -0.11391,-0.12247 -0.19493,-0.2424 -0.18002,-0.26652 0.0149,-0.0241 0.17138,-0.12977 0.34775,-0.23479 0.44106,-0.26264 1.42247,-0.99517 1.70148,-1.26995 l 0.23008,-0.22661 0.032,-0.61903 c 0.0176,-0.34047 0.0564,-0.96015 0.0863,-1.37709 0.0298,-0.41693 0.0688,-0.9926 0.0864,-1.27919 0.0258,-0.41737 0.0463,-0.52114 0.10324,-0.52114 0.0856,0 0.12678,0.22844 0.19208,1.06603 0.0254,0.32573 0.0672,0.8374 0.0929,1.13708 0.0257,0.29968 0.0594,0.74245 0.075,0.98391 0.022,0.34104 0.0458,0.44802 0.10661,0.47923 0.07,0.0359 0.20568,0.0552 0.88375,0.12529 0.45334,0.0469 0.83987,0.13752 0.86494,0.2028 0.0145,0.0377 -0.018,0.20981 -0.0721,0.38239 -0.0541,0.17257 -0.11262,0.40432 -0.12997,0.51502 -0.0356,0.22694 -0.16905,0.42362 -0.25248,0.37206 -0.0343,-0.0212 -0.0551,-0.17491 -0.0551,-0.40746 0,-0.20539 -0.016,-0.38309 -0.0355,-0.3949 -0.0195,-0.0118 -0.38981,-0.0358 -0.82279,-0.0533 l -0.78728,-0.0319 -0.32611,0.2784 c -0.4059,0.3465 -0.73295,0.54767 -1.24999,0.76892 l -0.40271,0.17233 0.0166,0.16319 c 0.009,0.0897 0.0333,0.19515 0.0537,0.23425 0.0204,0.0391 0.0521,0.16167 0.0705,0.27242 0.0335,0.20241 -0.013,0.25603 -0.14329,0.1651 z"
   id="path2-0"
   style="clip-rule:evenodd;fill-rule:evenodd;stroke-width:0.0505372;image-rendering:optimizeQuality;shape-rendering:geometricPrecision;text-rendering:geometricPrecision" /></svg>
